<svg width="100" height="17" viewBox="0 0 100 17" fill="none" xmlns="http://www.w3.org/2000/svg">
<path d="M4.05138 0.73877H0.748047V16.9089H4.05138V0.73877Z" fill="#E9E8EC"/>
<path d="M19.3748 0.73877V11.7807H19.1669L10.0192 0.73877H6.69275V16.9089H9.90369V5.93633H10.1116L19.2362 16.9089H22.5626V0.73877H19.3748Z" fill="#E9E8EC"/>
<path d="M38.2538 3.7418V0.73877H25.2253V16.9089H28.5286V10.6488H36.9833V7.78435H28.5286V3.7418H38.2538Z" fill="#E9E8EC"/>
<path d="M43.3615 0.73877H40.0582V16.9089H43.3615V0.73877Z" fill="#E9E8EC"/>
<path d="M58.6849 0.73877V11.7807H58.477L49.3293 0.73877H46.0029V16.9089H49.2138V5.93633H49.4217L58.5463 16.9089H61.8728V0.73877H58.6849Z" fill="#E9E8EC"/>
<path d="M67.8388 0.73877H64.5354V16.9089H67.8388V0.73877Z" fill="#E9E8EC"/>
<path d="M84.1093 0.73877H69.6254V3.6956H75.2157V16.9089H78.519V3.6956H84.1093V0.73877Z" fill="#E9E8EC"/>
<path d="M89.133 14.0445V10.1175H97.4722V7.29924H89.133V3.6032H98.7889V0.73877H85.9221V16.9089H99.02V14.0445H89.133Z" fill="#E9E8EC"/>
</svg>
