<svg width="38" height="32" viewBox="0 0 38 32" fill="none" xmlns="http://www.w3.org/2000/svg">
<path d="M37.6306 4.3692C36.2309 4.9883 34.7466 5.3949 33.2269 5.57553C34.8288 4.61749 36.0277 3.10972 36.6002 1.3332C35.0969 2.22787 33.4487 2.85487 31.7309 3.19403C30.577 1.95943 29.0475 1.14063 27.3803 0.864937C25.7131 0.589244 24.0014 0.872099 22.5115 1.66953C21.0216 2.46696 19.8369 3.73429 19.1416 5.27449C18.4463 6.81469 18.2793 8.54146 18.6665 10.1864C15.6179 10.0336 12.6355 9.24133 9.91291 7.86108C7.19033 6.48084 4.78845 4.54345 2.86322 2.1747C2.18175 3.34519 1.82364 4.67578 1.82555 6.0302C1.82555 8.68853 3.17855 11.037 5.23555 12.412C4.01823 12.3737 2.82771 12.045 1.76322 11.4532V11.5485C1.76359 13.319 2.37623 15.0348 3.49727 16.4051C4.61832 17.7755 6.17877 18.7159 7.91405 19.067C6.78401 19.3733 5.59911 19.4184 4.44905 19.199C4.93831 20.723 5.8919 22.0557 7.1763 23.0107C8.46071 23.9657 10.0116 24.4952 11.6119 24.5249C10.0214 25.774 8.20038 26.6973 6.25283 27.2422C4.30529 27.787 2.26945 27.9427 0.261719 27.7002C3.7665 29.9542 7.8464 31.1508 12.0134 31.1469C26.1172 31.1469 33.8301 19.463 33.8301 9.3302C33.8301 9.0002 33.8209 8.66653 33.8062 8.3402C35.3075 7.25517 36.6031 5.91107 37.6324 4.37103L37.6306 4.3692Z" fill="#E9E8EC"/>
</svg>
